<svg width="100%" height="100%" viewBox="0 0 160 202" version="1.1" xmlns="http://www.w3.org/2000/svg" xmlns:xlink="http://www.w3.org/1999/xlink" xml:space="preserve" xmlns:serif="http://www.serif.com/" style="fill-rule:evenodd;clip-rule:evenodd;stroke-linejoin:round;stroke-miterlimit:2;">
    <g transform="matrix(1,0,0,1,-100,-100)">
        <g transform="matrix(1,0,0,1,-177.868,-58.7185)">
            <g transform="matrix(1,0,0,1,63.1823,-55.2629)">
                <text x="276.876px" y="415.263px" style="font-family:'Futura-Medium', 'Futura', sans-serif;font-weight:500;font-size:144px;fill:rgb(235,235,235);">D</text>
            </g>
            <g transform="matrix(144,0,0,144,270.274,269.39)">
                <path d="M0.647,-0.713L0.647,-0.579C0.582,-0.634 0.514,-0.661 0.443,-0.661C0.366,-0.661 0.301,-0.633 0.248,-0.578C0.194,-0.522 0.167,-0.455 0.167,-0.375C0.167,-0.295 0.194,-0.229 0.248,-0.174C0.301,-0.12 0.366,-0.093 0.444,-0.093C0.484,-0.093 0.519,-0.097 0.546,-0.112C0.563,-0.122 0.555,-0.122 0.575,-0.124C0.594,-0.127 0.615,-0.12 0.656,-0.125L0.647,-0.042C0.582,-0.005 0.514,0.014 0.442,0.014C0.335,0.014 0.243,-0.024 0.167,-0.099C0.091,-0.175 0.053,-0.266 0.053,-0.374C0.053,-0.47 0.084,-0.555 0.148,-0.63C0.226,-0.722 0.327,-0.769 0.451,-0.769C0.519,-0.769 0.584,-0.75 0.647,-0.713Z" style="fill:rgb(235,235,235);fill-rule:nonzero;"/>
            </g>
        </g>
    </g>
</svg>
