<?xml version="1.0" encoding="UTF-8" standalone="no"?>
<!DOCTYPE svg PUBLIC "-//W3C//DTD SVG 1.1//EN" "http://www.w3.org/Graphics/SVG/1.1/DTD/svg11.dtd">
<svg width="100%" height="100%" viewBox="0 0 631 202" version="1.1" xmlns="http://www.w3.org/2000/svg" xmlns:xlink="http://www.w3.org/1999/xlink" xml:space="preserve" xmlns:serif="http://www.serif.com/" style="fill-rule:evenodd;clip-rule:evenodd;stroke-linejoin:round;stroke-miterlimit:2;">
    <g transform="matrix(1,0,0,1,-100,-100)">
        <g transform="matrix(1,0,0,1,-177.868,-58.7185)">
            <g transform="matrix(1,0,0,1,168.18,75.75)">
                <g transform="matrix(96,0,0,96,270.274,269.39)">
                    <rect x="0.09" y="-0.754" width="0.114" height="0.754" style="fill:rgb(235,235,235);fill-rule:nonzero;"/>
                </g>
                <g transform="matrix(96,0,0,96,298.587,269.39)">
                    <path d="M0.517,-0.642L0.424,-0.587C0.407,-0.617 0.391,-0.636 0.375,-0.646C0.359,-0.656 0.338,-0.661 0.312,-0.661C0.28,-0.661 0.254,-0.652 0.233,-0.634C0.213,-0.617 0.202,-0.595 0.202,-0.568C0.202,-0.531 0.229,-0.501 0.284,-0.479L0.359,-0.448C0.421,-0.424 0.465,-0.393 0.494,-0.358C0.522,-0.322 0.536,-0.278 0.536,-0.227C0.536,-0.157 0.513,-0.1 0.467,-0.055C0.42,-0.009 0.362,0.014 0.293,0.014C0.228,0.014 0.174,-0.006 0.131,-0.044C0.089,-0.083 0.063,-0.138 0.053,-0.208L0.168,-0.233C0.173,-0.189 0.182,-0.159 0.195,-0.142C0.219,-0.109 0.253,-0.093 0.298,-0.093C0.333,-0.093 0.363,-0.105 0.386,-0.128C0.41,-0.152 0.421,-0.182 0.421,-0.219C0.421,-0.233 0.419,-0.247 0.415,-0.259C0.411,-0.271 0.405,-0.282 0.396,-0.293C0.388,-0.303 0.376,-0.313 0.363,-0.322C0.349,-0.33 0.333,-0.339 0.314,-0.347L0.241,-0.377C0.138,-0.421 0.086,-0.485 0.086,-0.569C0.086,-0.625 0.108,-0.673 0.151,-0.711C0.195,-0.749 0.249,-0.769 0.313,-0.769C0.4,-0.769 0.468,-0.726 0.517,-0.642Z" style="fill:rgb(235,235,235);fill-rule:nonzero;"/>
                </g>
                <g transform="matrix(96,0,0,96,354.555,269.39)">
                    <path d="M0.647,-0.713L0.647,-0.579C0.582,-0.634 0.514,-0.661 0.443,-0.661C0.366,-0.661 0.301,-0.633 0.248,-0.578C0.194,-0.522 0.167,-0.455 0.167,-0.375C0.167,-0.295 0.194,-0.229 0.248,-0.174C0.301,-0.12 0.366,-0.093 0.444,-0.093C0.484,-0.093 0.518,-0.099 0.546,-0.112C0.562,-0.119 0.578,-0.128 0.594,-0.139C0.611,-0.15 0.629,-0.163 0.647,-0.179L0.647,-0.042C0.582,-0.005 0.514,0.014 0.442,0.014C0.335,0.014 0.243,-0.024 0.167,-0.099C0.091,-0.175 0.053,-0.266 0.053,-0.374C0.053,-0.47 0.084,-0.555 0.148,-0.63C0.226,-0.722 0.327,-0.769 0.451,-0.769C0.519,-0.769 0.584,-0.75 0.647,-0.713Z" style="fill:rgb(235,235,235);fill-rule:nonzero;"/>
                </g>
                <g transform="matrix(96,0,0,96,421.352,269.39)">
                    <path d="M0.053,-0.38C0.053,-0.486 0.092,-0.578 0.169,-0.654C0.247,-0.73 0.34,-0.768 0.449,-0.768C0.556,-0.768 0.648,-0.73 0.725,-0.653C0.802,-0.576 0.841,-0.484 0.841,-0.376C0.841,-0.268 0.802,-0.176 0.725,-0.1C0.647,-0.024 0.553,0.014 0.443,0.014C0.346,0.014 0.258,-0.02 0.181,-0.087C0.095,-0.162 0.053,-0.26 0.053,-0.38ZM0.167,-0.379C0.167,-0.296 0.195,-0.227 0.251,-0.173C0.307,-0.12 0.371,-0.093 0.444,-0.093C0.523,-0.093 0.59,-0.12 0.645,-0.175C0.699,-0.23 0.726,-0.298 0.726,-0.377C0.726,-0.457 0.699,-0.525 0.646,-0.579C0.592,-0.634 0.526,-0.661 0.447,-0.661C0.369,-0.661 0.303,-0.634 0.249,-0.579C0.194,-0.525 0.167,-0.458 0.167,-0.379Z" style="fill:rgb(235,235,235);fill-rule:nonzero;"/>
                </g>
                <g transform="matrix(96,0,0,96,507.133,269.39)">
                    <path d="M0.204,-0.754L0.204,-0.3C0.204,-0.235 0.215,-0.188 0.236,-0.158C0.267,-0.114 0.312,-0.093 0.369,-0.093C0.427,-0.093 0.471,-0.114 0.503,-0.158C0.524,-0.187 0.535,-0.234 0.535,-0.3L0.535,-0.754L0.648,-0.754L0.648,-0.269C0.648,-0.189 0.624,-0.124 0.574,-0.072C0.519,-0.015 0.45,0.014 0.369,0.014C0.288,0.014 0.22,-0.015 0.165,-0.072C0.115,-0.124 0.09,-0.189 0.09,-0.269L0.09,-0.754L0.204,-0.754Z" style="fill:rgb(235,235,235);fill-rule:nonzero;"/>
                </g>
                <g transform="matrix(96,0,0,96,578.055,269.39)">
                    <path d="M0.346,-0.321L0.579,0L0.44,0L0.225,-0.309L0.204,-0.309L0.204,0L0.09,0L0.09,-0.754L0.224,-0.754C0.323,-0.754 0.395,-0.735 0.439,-0.698C0.488,-0.656 0.513,-0.601 0.513,-0.533C0.513,-0.479 0.497,-0.433 0.467,-0.395C0.436,-0.357 0.396,-0.332 0.346,-0.321ZM0.204,-0.408L0.24,-0.408C0.348,-0.408 0.402,-0.449 0.402,-0.531C0.402,-0.608 0.349,-0.647 0.245,-0.647L0.204,-0.647L0.204,-0.408Z" style="fill:rgb(235,235,235);fill-rule:nonzero;"/>
                </g>
                <g transform="matrix(96,0,0,96,635.852,269.39)">
                    <path d="M0.517,-0.642L0.424,-0.587C0.407,-0.617 0.391,-0.636 0.375,-0.646C0.359,-0.656 0.338,-0.661 0.312,-0.661C0.28,-0.661 0.254,-0.652 0.233,-0.634C0.213,-0.617 0.202,-0.595 0.202,-0.568C0.202,-0.531 0.229,-0.501 0.284,-0.479L0.359,-0.448C0.421,-0.424 0.465,-0.393 0.494,-0.358C0.522,-0.322 0.536,-0.278 0.536,-0.227C0.536,-0.157 0.513,-0.1 0.467,-0.055C0.42,-0.009 0.362,0.014 0.293,0.014C0.228,0.014 0.174,-0.006 0.131,-0.044C0.089,-0.083 0.063,-0.138 0.053,-0.208L0.168,-0.233C0.173,-0.189 0.182,-0.159 0.195,-0.142C0.219,-0.109 0.253,-0.093 0.298,-0.093C0.333,-0.093 0.363,-0.105 0.386,-0.128C0.41,-0.152 0.421,-0.182 0.421,-0.219C0.421,-0.233 0.419,-0.247 0.415,-0.259C0.411,-0.271 0.405,-0.282 0.396,-0.293C0.388,-0.303 0.376,-0.313 0.363,-0.322C0.349,-0.33 0.333,-0.339 0.314,-0.347L0.241,-0.377C0.138,-0.421 0.086,-0.485 0.086,-0.569C0.086,-0.625 0.108,-0.673 0.151,-0.711C0.195,-0.749 0.249,-0.769 0.313,-0.769C0.4,-0.769 0.468,-0.726 0.517,-0.642Z" style="fill:rgb(235,235,235);fill-rule:nonzero;"/>
                </g>
                <g transform="matrix(96,0,0,96,691.821,269.39)">
                    <path d="M0.506,-0.647L0.204,-0.647L0.204,-0.466L0.498,-0.466L0.498,-0.359L0.204,-0.359L0.204,-0.107L0.506,-0.107L0.506,0L0.09,0L0.09,-0.754L0.506,-0.754L0.506,-0.647Z" style="fill:rgb(235,235,235);fill-rule:nonzero;"/>
                </g>
            </g>
            <g transform="matrix(1,0,0,1,98.9219,-19.2654)">
                <g transform="matrix(96,0,0,96,270.274,269.39)">
                    <path d="M0.346,-0.321L0.579,0L0.44,0L0.225,-0.309L0.204,-0.309L0.204,0L0.09,0L0.09,-0.754L0.224,-0.754C0.323,-0.754 0.395,-0.735 0.439,-0.698C0.488,-0.656 0.513,-0.601 0.513,-0.533C0.513,-0.479 0.497,-0.433 0.467,-0.395C0.436,-0.357 0.396,-0.332 0.346,-0.321ZM0.204,-0.408L0.24,-0.408C0.348,-0.408 0.402,-0.449 0.402,-0.531C0.402,-0.608 0.349,-0.647 0.245,-0.647L0.204,-0.647L0.204,-0.408Z" style="fill:rgb(235,235,235);fill-rule:nonzero;"/>
                </g>
                <g transform="matrix(96,0,0,96,328.071,269.39)">
                    <path d="M0.506,-0.647L0.204,-0.647L0.204,-0.466L0.498,-0.466L0.498,-0.359L0.204,-0.359L0.204,-0.107L0.506,-0.107L0.506,0L0.09,0L0.09,-0.754L0.506,-0.754L0.506,-0.647Z" style="fill:rgb(235,235,235);fill-rule:nonzero;"/>
                </g>
                <g transform="matrix(96,0,0,96,382.352,269.39)">
                    <path d="M0.533,-0.183L0.21,-0.183L0.126,0L0.004,0L0.377,-0.801L0.737,0L0.612,0L0.533,-0.183ZM0.487,-0.29L0.375,-0.546L0.258,-0.29L0.487,-0.29Z" style="fill:rgb(235,235,235);fill-rule:nonzero;"/>
                </g>
                <g transform="matrix(96,0,0,96,449.43,269.39)">
                    <path d="M0.298,-0.647L0.298,0L0.185,0L0.185,-0.647L0.011,-0.647L0.011,-0.754L0.471,-0.754L0.471,-0.647L0.298,-0.647Z" style="fill:rgb(235,235,235);fill-rule:nonzero;"/>
                </g>
                <g transform="matrix(96,0,0,96,495.743,269.39)">
                    <rect x="0.09" y="-0.754" width="0.114" height="0.754" style="fill:rgb(235,235,235);fill-rule:nonzero;"/>
                </g>
                <g transform="matrix(96,0,0,96,524.055,269.39)">
                    <path d="M0.128,-0.754L0.337,-0.231L0.548,-0.754L0.673,-0.754L0.334,0.057L0.004,-0.754L0.128,-0.754Z" style="fill:rgb(235,235,235);fill-rule:nonzero;"/>
                </g>
                <g transform="matrix(96,0,0,96,588.977,269.39)">
                    <path d="M0.506,-0.647L0.204,-0.647L0.204,-0.466L0.498,-0.466L0.498,-0.359L0.204,-0.359L0.204,-0.107L0.506,-0.107L0.506,0L0.09,0L0.09,-0.754L0.506,-0.754L0.506,-0.647Z" style="fill:rgb(235,235,235);fill-rule:nonzero;"/>
                </g>
            </g>
            <g>
                <g transform="matrix(144,0,0,144,340.059,360)">
                    <path d="M0.09,0L0.09,-0.754L0.249,-0.754C0.324,-0.754 0.384,-0.746 0.428,-0.731C0.475,-0.717 0.518,-0.692 0.557,-0.657C0.634,-0.586 0.673,-0.493 0.673,-0.377C0.673,-0.261 0.633,-0.167 0.552,-0.096C0.511,-0.06 0.468,-0.035 0.424,-0.021C0.382,-0.007 0.323,0 0.247,0L0.09,0ZM0.204,-0.107L0.255,-0.107C0.306,-0.107 0.349,-0.112 0.383,-0.123C0.417,-0.134 0.447,-0.153 0.475,-0.177C0.531,-0.228 0.559,-0.295 0.559,-0.377C0.559,-0.46 0.531,-0.527 0.476,-0.578C0.426,-0.624 0.352,-0.647 0.255,-0.647L0.204,-0.647L0.204,-0.107Z" style="fill:rgb(235,235,235);fill-rule:nonzero;"/>
                </g>
                <g transform="matrix(144,0,0,144,270.274,269.39)">
                    <path d="M0.647,-0.713L0.647,-0.579C0.582,-0.634 0.514,-0.661 0.443,-0.661C0.366,-0.661 0.301,-0.633 0.248,-0.578C0.194,-0.522 0.167,-0.455 0.167,-0.375C0.167,-0.295 0.194,-0.229 0.248,-0.174C0.301,-0.12 0.366,-0.093 0.444,-0.093C0.484,-0.093 0.519,-0.097 0.546,-0.112C0.563,-0.122 0.555,-0.122 0.575,-0.124C0.594,-0.127 0.615,-0.12 0.656,-0.125L0.647,-0.042C0.582,-0.005 0.514,0.014 0.442,0.014C0.335,0.014 0.243,-0.024 0.167,-0.099C0.091,-0.175 0.053,-0.266 0.053,-0.374C0.053,-0.47 0.084,-0.555 0.148,-0.63C0.226,-0.722 0.327,-0.769 0.451,-0.769C0.519,-0.769 0.584,-0.75 0.647,-0.713Z" style="fill:rgb(235,235,235);fill-rule:nonzero;"/>
                </g>
            </g>
        </g>
    </g>
</svg>
