<svg viewBox="0 0 1433 1421" xmlns="http://www.w3.org/2000/svg" xmlns:xlink="http://www.w3.org/1999/xlink" xml:space="preserve" xmlns:serif="http://www.serif.com/" style="fill-rule:evenodd;clip-rule:evenodd;stroke-linejoin:round;stroke-miterlimit:2;">
    <g clip-path="url(#_clip1)">
        <g id="Begotten-Logo" serif:id="Begotten Logo" transform="matrix(1.04183,0,-6.695e-32,1.04183,-7545.9,-12439.5)">
            <path d="M8504.32,13303.1L7356.31,13303.1C7328.62,13303.1 7302.9,13288.8 7288.31,13265.3C7277.8,13248.3 7265.43,13228.4 7254.91,13211.4C7240.26,13187.7 7238.93,13158.2 7251.39,13133.4C7392.8,12851.4 7675.57,12287.5 7827.74,11984.1C7841.31,11957 7868.99,11940 7899.25,11940C7918.98,11940 7941.65,11940 7961.38,11940C7991.65,11940 8019.32,11957 8032.89,11984.1C8185.07,12287.5 8467.84,12851.4 8609.24,13133.4C8621.7,13158.2 8620.37,13187.7 8605.73,13211.4C8595.2,13228.4 8582.83,13248.3 8572.32,13265.3C8557.73,13288.8 8532.01,13303.1 8504.32,13303.1ZM8459.01,13228.4C8479.82,13228.4 8499.14,13217.7 8510.07,13200C8515.99,13190.4 8522.61,13179.6 8528.53,13170C8539.46,13152.3 8540.44,13130.2 8531.11,13111.6C8472.39,12994.5 8383.28,12816.8 8330.03,12710.7C8321.55,12693.8 8304.25,12683.1 8285.33,12683.1C8266.42,12683.1 8249.12,12693.8 8240.64,12710.7C8156.06,12879.3 7980.97,13228.4 7980.97,13228.4L8459.01,13228.4ZM7936.28,12103.8C7944.76,12086.9 7962.06,12076.2 7980.97,12076.2C7999.89,12076.2 8017.19,12086.9 8025.67,12103.8C8081.31,12214.7 8176.13,12403.8 8234.49,12520.2C8245.38,12541.9 8244.24,12567.6 8231.49,12588.3C8218.74,12609 8196.2,12621.5 8171.92,12621.5C7995.81,12621.5 7676.61,12621.5 7676.61,12621.5C7676.61,12621.5 7851.7,12272.4 7936.28,12103.8Z" style="fill:url(#_Linear2);"/>
        </g>
    </g>
    <defs>
        <linearGradient id="_Linear2" x1="0" y1="0" x2="1" y2="0" gradientUnits="userSpaceOnUse" gradientTransform="matrix(877.68,-545.366,545.366,877.68,7272.75,13228.4)"><stop offset="0" style="stop-color:rgb(206,0,53);stop-opacity:1"/><stop offset="1" style="stop-color:rgb(233,27,80);stop-opacity:1"/></linearGradient>
    </defs>
</svg>
